<svg width="28" height="28" fill="none" xmlns="http://www.w3.org/2000/svg"><path d="m15.167 8.167-1.302-2.603c-.374-.75-.562-1.124-.841-1.398a2.334 2.334 0 0 0-.872-.538c-.37-.128-.788-.128-1.626-.128h-4.46c-1.306 0-1.96 0-2.459.254-.439.224-.796.581-1.02 1.02-.254.5-.254 1.153-.254 2.46v.933m0 0h17.734c1.96 0 2.94 0 3.689.381a3.5 3.5 0 0 1 1.53 1.53c.38.748.38 1.729.38 3.689V18.9c0 1.96 0 2.94-.38 3.689a3.5 3.5 0 0 1-1.53 1.53c-.75.381-1.73.381-3.69.381H7.934c-1.96 0-2.94 0-3.689-.381a3.5 3.5 0 0 1-1.53-1.53c-.38-.749-.38-1.729-.38-3.689V8.167zM14 20.417s3.5-1.669 3.5-4.17v-2.92l-2.552-.912a2.814 2.814 0 0 0-1.897 0l-2.551.912v2.92c0 2.501 3.5 4.17 3.5 4.17z" stroke="#344054" stroke-width="2" stroke-linecap="round" stroke-linejoin="round"/></svg>