<svg width="910" height="910" fill="none" xmlns="http://www.w3.org/2000/svg"><mask id="b" style="mask-type:alpha" maskUnits="userSpaceOnUse" x="-4" y="-4" width="918" height="918"><rect x="-3.01" y="163.215" width="768" height="768" rx="20" transform="rotate(-12.5 -3.01 163.215)" fill="url(#a)"/></mask><g mask="url(#b)" stroke="#EAECF0"><rect x="398.344" y="418.907" width="95" height="95" rx="19.5" transform="rotate(-12.5 398.344 418.907)"/><rect x="341.094" y="382.434" width="191" height="191" rx="19.5" transform="rotate(-12.5 341.094 382.434)"/><rect x="283.842" y="345.961" width="287" height="287" rx="19.5" transform="rotate(-12.5 283.842 345.961)"/><rect x="226.591" y="309.487" width="383" height="383" rx="19.5" transform="rotate(-12.5 226.591 309.487)"/><rect x="169.341" y="273.015" width="479" height="479" rx="19.5" transform="rotate(-12.5 169.341 273.015)"/><rect x="112.088" y="236.541" width="575" height="575" rx="19.5" transform="rotate(-12.5 112.088 236.541)"/><rect x="54.837" y="200.068" width="671" height="671" rx="19.5" transform="rotate(-12.5 54.837 200.068)"/><rect x="-2.413" y="163.595" width="767" height="767" rx="19.5" transform="rotate(-12.5 -2.413 163.595)"/></g><defs><radialGradient id="a" cx="0" cy="0" r="1" gradientUnits="userSpaceOnUse" gradientTransform="matrix(0 384 -384 0 380.99 547.215)"><stop/><stop offset="1" stop-opacity="0"/></radialGradient></defs></svg>