<svg width="480" height="480" fill="none" xmlns="http://www.w3.org/2000/svg"><mask id="b" style="mask-type:alpha" maskUnits="userSpaceOnUse" x="0" y="0" width="480" height="480"><rect width="480" height="480" rx="12" fill="url(#a)"/></mask><g mask="url(#b)" stroke="#EAECF0"><rect x="183.344" y="203.907" width="95" height="95" rx="11.5" transform="rotate(-12.5 183.344 203.907)"/><rect x="145.178" y="179.592" width="159" height="159" rx="11.5" transform="rotate(-12.5 145.178 179.592)"/><rect x="107.01" y="155.276" width="223" height="223" rx="11.5" transform="rotate(-12.5 107.01 155.276)"/><rect x="68.843" y="130.961" width="287" height="287" rx="11.5" transform="rotate(-12.5 68.843 130.961)"/><rect x="30.674" y="106.646" width="351" height="351" rx="11.5" transform="rotate(-12.5 30.674 106.646)"/><rect x="-7.493" y="82.33" width="415" height="415" rx="11.5" transform="rotate(-12.5 -7.493 82.33)"/><rect x="-45.66" y="58.015" width="479" height="479" rx="11.5" transform="rotate(-12.5 -45.66 58.015)"/></g><defs><radialGradient id="a" cx="0" cy="0" r="1" gradientUnits="userSpaceOnUse" gradientTransform="rotate(90 0 240) scale(240)"><stop/><stop offset="1" stop-opacity="0"/></radialGradient></defs></svg>