<svg width="375" height="63" fill="none" xmlns="http://www.w3.org/2000/svg"><path fill="#fff" d="M0 0h62.5v62.5H0z"/><path fill="#2970FF" d="M31.311 31.25h31.25V62.5h-31.25z"/><path fill="#B2DDFF" d="M0 0h31.25v31.25H0zM62.5 0H125v62.5H62.5z"/><path d="M125 0v62.5H62.5L125 0z" fill="#004EEB"/><circle cx="93.689" cy="31.25" r="15.625" fill="#fff"/><path fill="#fff" d="M125 0h62.5v62.5H125z"/><path d="M156.311 31.25h31.25l-31.25 31.25V31.25zM156.25 0v31.25H125L156.25 0z" fill="#2970FF"/><path fill="#fff" d="M187.5 0H250v62.5h-62.5z"/><path d="M250 62.5c-17.259 0-31.25-13.991-31.25-31.25S232.741 0 250 0v62.5z" fill="#004EEB"/><circle cx="203.125" cy="31.25" r="15.625" fill="#84ADFF"/><path fill="#B2DDFF" d="M250 0h62.5v62.5H250z"/><path d="M281.25 31.25V0l31.25 31.25h-31.25z" fill="#fff"/><path d="M250 31.25h31.25V62.5L250 31.25z" fill="#2970FF"/><path fill="#84ADFF" d="M312.5 0H375v62.5h-62.5z"/><path d="M312.5 62.5c17.259 0 31.25-13.991 31.25-31.25S329.759 0 312.5 0v62.5z" fill="#004EEB"/><path d="M375 0v62.5l-31.25-31.25L375 0z" fill="#fff"/></svg>